<mxfile host="app.diagrams.net" modified="2024-03-24T23:15:40.193Z" agent="Mozilla/5.0 (X11; Linux x86_64) AppleWebKit/537.36 (KHTML, like Gecko) Chrome/122.0.0.0 Safari/537.36" etag="tyLBQFz9ndl31Goenvfo" version="24.1.0" type="device">
  <diagram name="Page-1" id="-v8ZZSC6USexRfs9U9IO">
    <mxGraphModel dx="2474" dy="1208" grid="0" gridSize="10" guides="1" tooltips="1" connect="1" arrows="1" fold="1" page="0" pageScale="1" pageWidth="850" pageHeight="1100" math="0" shadow="0">
      <root>
        <mxCell id="0" />
        <mxCell id="1" parent="0" />
        <mxCell id="m3jKY2579oGw95f_CGnA-60" value="" style="rounded=0;whiteSpace=wrap;html=1;" vertex="1" parent="1">
          <mxGeometry x="132" y="-204" width="594" height="569" as="geometry" />
        </mxCell>
        <mxCell id="m3jKY2579oGw95f_CGnA-25" value="" style="rounded=0;whiteSpace=wrap;html=1;" vertex="1" parent="1">
          <mxGeometry x="-459" y="-156" width="392" height="402" as="geometry" />
        </mxCell>
        <mxCell id="m3jKY2579oGw95f_CGnA-3" value="&lt;div&gt;Frontend&lt;/div&gt;" style="swimlane;fontStyle=0;childLayout=stackLayout;horizontal=1;startSize=30;horizontalStack=0;resizeParent=1;resizeParentMax=0;resizeLast=0;collapsible=1;marginBottom=0;whiteSpace=wrap;html=1;" vertex="1" parent="1">
          <mxGeometry x="-438" y="-84" width="140" height="60" as="geometry" />
        </mxCell>
        <mxCell id="m3jKY2579oGw95f_CGnA-7" value="Backend" style="swimlane;fontStyle=0;childLayout=stackLayout;horizontal=1;startSize=30;horizontalStack=0;resizeParent=1;resizeParentMax=0;resizeLast=0;collapsible=1;marginBottom=0;whiteSpace=wrap;html=1;" vertex="1" parent="1">
          <mxGeometry x="-215" y="-82" width="140" height="60" as="geometry" />
        </mxCell>
        <mxCell id="m3jKY2579oGw95f_CGnA-9" value="0.0.0.0:8080&lt;div&gt;&lt;br&gt;&lt;/div&gt;" style="text;strokeColor=none;fillColor=none;align=left;verticalAlign=middle;spacingLeft=4;spacingRight=4;overflow=hidden;points=[[0,0.5],[1,0.5]];portConstraint=eastwest;rotatable=0;whiteSpace=wrap;html=1;" vertex="1" parent="m3jKY2579oGw95f_CGnA-7">
          <mxGeometry y="30" width="140" height="30" as="geometry" />
        </mxCell>
        <mxCell id="m3jKY2579oGw95f_CGnA-11" value="" style="html=1;verticalAlign=bottom;endArrow=open;dashed=1;endSize=8;curved=0;rounded=0;fontSize=12;entryX=0.029;entryY=-0.033;entryDx=0;entryDy=0;entryPerimeter=0;exitX=1.014;exitY=-0.067;exitDx=0;exitDy=0;exitPerimeter=0;" edge="1" parent="1" source="m3jKY2579oGw95f_CGnA-4" target="m3jKY2579oGw95f_CGnA-9">
          <mxGeometry relative="1" as="geometry">
            <mxPoint x="240" y="240" as="sourcePoint" />
            <mxPoint x="160" y="240" as="targetPoint" />
          </mxGeometry>
        </mxCell>
        <mxCell id="m3jKY2579oGw95f_CGnA-4" value="0.0.0.0:80" style="text;strokeColor=none;fillColor=none;align=left;verticalAlign=middle;spacingLeft=4;spacingRight=4;overflow=hidden;points=[[0,0.5],[1,0.5]];portConstraint=eastwest;rotatable=0;whiteSpace=wrap;html=1;" vertex="1" parent="1">
          <mxGeometry x="-438" y="-52" width="140" height="30" as="geometry" />
        </mxCell>
        <mxCell id="m3jKY2579oGw95f_CGnA-16" value="etherpad" style="swimlane;fontStyle=0;childLayout=stackLayout;horizontal=1;startSize=30;horizontalStack=0;resizeParent=1;resizeParentMax=0;resizeLast=0;collapsible=1;marginBottom=0;whiteSpace=wrap;html=1;" vertex="1" parent="1">
          <mxGeometry x="-438" y="30" width="140" height="60" as="geometry" />
        </mxCell>
        <mxCell id="m3jKY2579oGw95f_CGnA-17" value="&lt;div&gt;0.0.0.0:9001&lt;br&gt;&lt;/div&gt;" style="text;strokeColor=none;fillColor=none;align=left;verticalAlign=middle;spacingLeft=4;spacingRight=4;overflow=hidden;points=[[0,0.5],[1,0.5]];portConstraint=eastwest;rotatable=0;whiteSpace=wrap;html=1;" vertex="1" parent="m3jKY2579oGw95f_CGnA-16">
          <mxGeometry y="30" width="140" height="30" as="geometry" />
        </mxCell>
        <mxCell id="m3jKY2579oGw95f_CGnA-18" value="bytemark/mail" style="swimlane;fontStyle=0;childLayout=stackLayout;horizontal=1;startSize=30;horizontalStack=0;resizeParent=1;resizeParentMax=0;resizeLast=0;collapsible=1;marginBottom=0;whiteSpace=wrap;html=1;" vertex="1" parent="1">
          <mxGeometry x="-229" y="34" width="140" height="60" as="geometry" />
        </mxCell>
        <mxCell id="m3jKY2579oGw95f_CGnA-19" value="&lt;div&gt;0.0.0.0:2525&lt;br&gt;&lt;/div&gt;" style="text;strokeColor=none;fillColor=none;align=left;verticalAlign=middle;spacingLeft=4;spacingRight=4;overflow=hidden;points=[[0,0.5],[1,0.5]];portConstraint=eastwest;rotatable=0;whiteSpace=wrap;html=1;" vertex="1" parent="m3jKY2579oGw95f_CGnA-18">
          <mxGeometry y="30" width="140" height="30" as="geometry" />
        </mxCell>
        <mxCell id="m3jKY2579oGw95f_CGnA-20" value="DB/mySQL" style="swimlane;fontStyle=0;childLayout=stackLayout;horizontal=1;startSize=30;horizontalStack=0;resizeParent=1;resizeParentMax=0;resizeLast=0;collapsible=1;marginBottom=0;whiteSpace=wrap;html=1;" vertex="1" parent="1">
          <mxGeometry x="-366" y="170" width="140" height="60" as="geometry" />
        </mxCell>
        <mxCell id="m3jKY2579oGw95f_CGnA-21" value="&lt;div&gt;0.0.0.0:3306&lt;/div&gt;" style="text;strokeColor=none;fillColor=none;align=left;verticalAlign=middle;spacingLeft=4;spacingRight=4;overflow=hidden;points=[[0,0.5],[1,0.5]];portConstraint=eastwest;rotatable=0;whiteSpace=wrap;html=1;" vertex="1" parent="m3jKY2579oGw95f_CGnA-20">
          <mxGeometry y="30" width="140" height="30" as="geometry" />
        </mxCell>
        <mxCell id="m3jKY2579oGw95f_CGnA-22" value="" style="html=1;verticalAlign=bottom;endArrow=open;dashed=1;endSize=8;curved=0;rounded=0;fontSize=12;exitX=0.014;exitY=1.067;exitDx=0;exitDy=0;exitPerimeter=0;" edge="1" parent="1" source="m3jKY2579oGw95f_CGnA-9">
          <mxGeometry relative="1" as="geometry">
            <mxPoint x="-286" y="-44" as="sourcePoint" />
            <mxPoint x="-287" y="167" as="targetPoint" />
          </mxGeometry>
        </mxCell>
        <mxCell id="m3jKY2579oGw95f_CGnA-23" value="" style="html=1;verticalAlign=bottom;endArrow=block;curved=0;rounded=0;fontSize=12;startSize=8;endSize=8;entryX=0.629;entryY=0.017;entryDx=0;entryDy=0;entryPerimeter=0;exitX=0.581;exitY=0.932;exitDx=0;exitDy=0;exitPerimeter=0;" edge="1" parent="1" source="m3jKY2579oGw95f_CGnA-9" target="m3jKY2579oGw95f_CGnA-18">
          <mxGeometry width="80" relative="1" as="geometry">
            <mxPoint x="-122" y="-15" as="sourcePoint" />
            <mxPoint x="240" y="240" as="targetPoint" />
          </mxGeometry>
        </mxCell>
        <mxCell id="m3jKY2579oGw95f_CGnA-24" value="" style="html=1;verticalAlign=bottom;endArrow=block;curved=0;rounded=0;fontSize=12;startSize=8;endSize=8;entryX=1.014;entryY=-0.1;entryDx=0;entryDy=0;entryPerimeter=0;exitX=0.007;exitY=1;exitDx=0;exitDy=0;exitPerimeter=0;" edge="1" parent="1" source="m3jKY2579oGw95f_CGnA-9" target="m3jKY2579oGw95f_CGnA-16">
          <mxGeometry width="80" relative="1" as="geometry">
            <mxPoint x="-111" y="-14" as="sourcePoint" />
            <mxPoint x="-117" y="53" as="targetPoint" />
          </mxGeometry>
        </mxCell>
        <mxCell id="m3jKY2579oGw95f_CGnA-26" value="Docker" style="text;html=1;align=center;verticalAlign=middle;whiteSpace=wrap;rounded=0;fontSize=16;" vertex="1" parent="1">
          <mxGeometry x="-474" y="-142" width="128" height="37" as="geometry" />
        </mxCell>
        <mxCell id="m3jKY2579oGw95f_CGnA-27" value="WebBrowser" style="html=1;whiteSpace=wrap;" vertex="1" parent="1">
          <mxGeometry x="-590" y="-82" width="116" height="50" as="geometry" />
        </mxCell>
        <mxCell id="m3jKY2579oGw95f_CGnA-41" value="" style="endArrow=open;endFill=1;endSize=12;html=1;rounded=0;fontSize=12;curved=1;exitX=1;exitY=0.5;exitDx=0;exitDy=0;entryX=-0.014;entryY=-0.167;entryDx=0;entryDy=0;entryPerimeter=0;" edge="1" parent="1" source="m3jKY2579oGw95f_CGnA-27" target="m3jKY2579oGw95f_CGnA-4">
          <mxGeometry width="160" relative="1" as="geometry">
            <mxPoint x="-146" y="248" as="sourcePoint" />
            <mxPoint x="14" y="248" as="targetPoint" />
          </mxGeometry>
        </mxCell>
        <mxCell id="m3jKY2579oGw95f_CGnA-42" value="" style="rounded=0;whiteSpace=wrap;html=1;" vertex="1" parent="1">
          <mxGeometry x="180" y="-154" width="504" height="486" as="geometry" />
        </mxCell>
        <mxCell id="m3jKY2579oGw95f_CGnA-57" value="minikube" style="text;html=1;align=center;verticalAlign=middle;whiteSpace=wrap;rounded=0;fontSize=16;" vertex="1" parent="1">
          <mxGeometry x="160" y="-158" width="128" height="37" as="geometry" />
        </mxCell>
        <mxCell id="m3jKY2579oGw95f_CGnA-58" value="WebBrowser" style="html=1;whiteSpace=wrap;" vertex="1" parent="1">
          <mxGeometry x="-1" y="-80" width="116" height="50" as="geometry" />
        </mxCell>
        <mxCell id="m3jKY2579oGw95f_CGnA-61" value="Docker" style="text;html=1;align=center;verticalAlign=middle;whiteSpace=wrap;rounded=0;fontSize=16;" vertex="1" parent="1">
          <mxGeometry x="152" y="-192" width="60" height="30" as="geometry" />
        </mxCell>
        <mxCell id="m3jKY2579oGw95f_CGnA-68" value="" style="rounded=0;whiteSpace=wrap;html=1;" vertex="1" parent="1">
          <mxGeometry x="205" y="-121" width="450" height="428" as="geometry" />
        </mxCell>
        <mxCell id="m3jKY2579oGw95f_CGnA-69" value="Node 1" style="text;html=1;align=center;verticalAlign=middle;whiteSpace=wrap;rounded=0;fontSize=16;" vertex="1" parent="1">
          <mxGeometry x="210" y="-107" width="60" height="30" as="geometry" />
        </mxCell>
        <mxCell id="m3jKY2579oGw95f_CGnA-71" value="&lt;div&gt;Frontend&lt;/div&gt;" style="swimlane;fontStyle=0;childLayout=stackLayout;horizontal=1;startSize=30;horizontalStack=0;resizeParent=1;resizeParentMax=0;resizeLast=0;collapsible=1;marginBottom=0;whiteSpace=wrap;html=1;" vertex="1" parent="1">
          <mxGeometry x="215" y="-64" width="189" height="92" as="geometry" />
        </mxCell>
        <mxCell id="m3jKY2579oGw95f_CGnA-84" value="NodePort" style="text;html=1;align=center;verticalAlign=middle;resizable=0;points=[];autosize=1;strokeColor=none;fillColor=none;fontSize=16;" vertex="1" parent="m3jKY2579oGw95f_CGnA-71">
          <mxGeometry y="30" width="189" height="31" as="geometry" />
        </mxCell>
        <mxCell id="m3jKY2579oGw95f_CGnA-86" value="10.109.119.185:80:30000" style="text;html=1;align=center;verticalAlign=middle;resizable=0;points=[];autosize=1;strokeColor=none;fillColor=none;fontSize=16;" vertex="1" parent="m3jKY2579oGw95f_CGnA-71">
          <mxGeometry y="61" width="189" height="31" as="geometry" />
        </mxCell>
        <mxCell id="m3jKY2579oGw95f_CGnA-93" value="&lt;div&gt;Backend&lt;/div&gt;" style="swimlane;fontStyle=0;childLayout=stackLayout;horizontal=1;startSize=30;horizontalStack=0;resizeParent=1;resizeParentMax=0;resizeLast=0;collapsible=1;marginBottom=0;whiteSpace=wrap;html=1;" vertex="1" parent="1">
          <mxGeometry x="432" y="-67" width="189" height="92" as="geometry" />
        </mxCell>
        <mxCell id="m3jKY2579oGw95f_CGnA-94" value="Cluster Ip" style="text;html=1;align=center;verticalAlign=middle;resizable=0;points=[];autosize=1;strokeColor=none;fillColor=none;fontSize=16;" vertex="1" parent="m3jKY2579oGw95f_CGnA-93">
          <mxGeometry y="30" width="189" height="31" as="geometry" />
        </mxCell>
        <mxCell id="m3jKY2579oGw95f_CGnA-95" value="10.107.138.190:8080" style="text;html=1;align=center;verticalAlign=middle;resizable=0;points=[];autosize=1;strokeColor=none;fillColor=none;fontSize=16;" vertex="1" parent="m3jKY2579oGw95f_CGnA-93">
          <mxGeometry y="61" width="189" height="31" as="geometry" />
        </mxCell>
        <mxCell id="m3jKY2579oGw95f_CGnA-96" value="etherpad" style="swimlane;fontStyle=0;childLayout=stackLayout;horizontal=1;startSize=30;horizontalStack=0;resizeParent=1;resizeParentMax=0;resizeLast=0;collapsible=1;marginBottom=0;whiteSpace=wrap;html=1;" vertex="1" parent="1">
          <mxGeometry x="220" y="47" width="189" height="92" as="geometry" />
        </mxCell>
        <mxCell id="m3jKY2579oGw95f_CGnA-97" value="Cluster IP" style="text;html=1;align=center;verticalAlign=middle;resizable=0;points=[];autosize=1;strokeColor=none;fillColor=none;fontSize=16;" vertex="1" parent="m3jKY2579oGw95f_CGnA-96">
          <mxGeometry y="30" width="189" height="31" as="geometry" />
        </mxCell>
        <mxCell id="m3jKY2579oGw95f_CGnA-98" value="10.101.229.2:9001" style="text;html=1;align=center;verticalAlign=middle;resizable=0;points=[];autosize=1;strokeColor=none;fillColor=none;fontSize=16;" vertex="1" parent="m3jKY2579oGw95f_CGnA-96">
          <mxGeometry y="61" width="189" height="31" as="geometry" />
        </mxCell>
        <mxCell id="m3jKY2579oGw95f_CGnA-100" value="bytemark/mail" style="swimlane;fontStyle=0;childLayout=stackLayout;horizontal=1;startSize=30;horizontalStack=0;resizeParent=1;resizeParentMax=0;resizeLast=0;collapsible=1;marginBottom=0;whiteSpace=wrap;html=1;" vertex="1" parent="1">
          <mxGeometry x="432" y="51" width="189" height="92" as="geometry" />
        </mxCell>
        <mxCell id="m3jKY2579oGw95f_CGnA-101" value="Cluster Ip" style="text;html=1;align=center;verticalAlign=middle;resizable=0;points=[];autosize=1;strokeColor=none;fillColor=none;fontSize=16;" vertex="1" parent="m3jKY2579oGw95f_CGnA-100">
          <mxGeometry y="30" width="189" height="31" as="geometry" />
        </mxCell>
        <mxCell id="m3jKY2579oGw95f_CGnA-102" value="10.108.115.232:25" style="text;html=1;align=center;verticalAlign=middle;resizable=0;points=[];autosize=1;strokeColor=none;fillColor=none;fontSize=16;" vertex="1" parent="m3jKY2579oGw95f_CGnA-100">
          <mxGeometry y="61" width="189" height="31" as="geometry" />
        </mxCell>
        <mxCell id="m3jKY2579oGw95f_CGnA-103" value="DB" style="swimlane;fontStyle=0;childLayout=stackLayout;horizontal=1;startSize=30;horizontalStack=0;resizeParent=1;resizeParentMax=0;resizeLast=0;collapsible=1;marginBottom=0;whiteSpace=wrap;html=1;" vertex="1" parent="1">
          <mxGeometry x="315" y="180" width="189" height="92" as="geometry" />
        </mxCell>
        <mxCell id="m3jKY2579oGw95f_CGnA-104" value="Cluster Ip" style="text;html=1;align=center;verticalAlign=middle;resizable=0;points=[];autosize=1;strokeColor=none;fillColor=none;fontSize=16;" vertex="1" parent="m3jKY2579oGw95f_CGnA-103">
          <mxGeometry y="30" width="189" height="31" as="geometry" />
        </mxCell>
        <mxCell id="m3jKY2579oGw95f_CGnA-105" value="10.100.62.245:3306" style="text;html=1;align=center;verticalAlign=middle;resizable=0;points=[];autosize=1;strokeColor=none;fillColor=none;fontSize=16;" vertex="1" parent="m3jKY2579oGw95f_CGnA-103">
          <mxGeometry y="61" width="189" height="31" as="geometry" />
        </mxCell>
        <mxCell id="m3jKY2579oGw95f_CGnA-106" value="" style="html=1;verticalAlign=bottom;endArrow=open;dashed=1;endSize=8;curved=0;rounded=0;fontSize=12;exitX=0.003;exitY=1.065;exitDx=0;exitDy=0;exitPerimeter=0;entryX=0.5;entryY=0;entryDx=0;entryDy=0;" edge="1" parent="1" source="m3jKY2579oGw95f_CGnA-95" target="m3jKY2579oGw95f_CGnA-103">
          <mxGeometry relative="1" as="geometry">
            <mxPoint x="-203" y="-10" as="sourcePoint" />
            <mxPoint x="-277" y="177" as="targetPoint" />
          </mxGeometry>
        </mxCell>
        <mxCell id="m3jKY2579oGw95f_CGnA-107" value="" style="endArrow=open;endFill=1;endSize=12;html=1;rounded=0;fontSize=12;curved=1;exitX=1;exitY=0.5;exitDx=0;exitDy=0;entryX=0.009;entryY=-0.156;entryDx=0;entryDy=0;entryPerimeter=0;" edge="1" parent="1" source="m3jKY2579oGw95f_CGnA-58" target="m3jKY2579oGw95f_CGnA-84">
          <mxGeometry width="160" relative="1" as="geometry">
            <mxPoint x="-464" y="-47" as="sourcePoint" />
            <mxPoint x="-430" y="-47" as="targetPoint" />
          </mxGeometry>
        </mxCell>
        <mxCell id="m3jKY2579oGw95f_CGnA-108" value="" style="html=1;verticalAlign=bottom;endArrow=open;dashed=1;endSize=8;curved=0;rounded=0;fontSize=12;exitX=1.001;exitY=0.174;exitDx=0;exitDy=0;exitPerimeter=0;entryX=0.007;entryY=0.17;entryDx=0;entryDy=0;entryPerimeter=0;" edge="1" parent="1" source="m3jKY2579oGw95f_CGnA-71" target="m3jKY2579oGw95f_CGnA-93">
          <mxGeometry relative="1" as="geometry">
            <mxPoint x="443" y="37" as="sourcePoint" />
            <mxPoint x="420" y="190" as="targetPoint" />
          </mxGeometry>
        </mxCell>
        <mxCell id="m3jKY2579oGw95f_CGnA-109" value="" style="html=1;verticalAlign=bottom;endArrow=block;curved=0;rounded=0;fontSize=12;startSize=8;endSize=8;entryX=0.5;entryY=0;entryDx=0;entryDy=0;exitX=0.536;exitY=1.091;exitDx=0;exitDy=0;exitPerimeter=0;" edge="1" parent="1" source="m3jKY2579oGw95f_CGnA-95" target="m3jKY2579oGw95f_CGnA-100">
          <mxGeometry width="80" relative="1" as="geometry">
            <mxPoint x="-124" y="-14" as="sourcePoint" />
            <mxPoint x="-131" y="45" as="targetPoint" />
          </mxGeometry>
        </mxCell>
        <mxCell id="m3jKY2579oGw95f_CGnA-110" value="" style="html=1;verticalAlign=bottom;endArrow=block;curved=0;rounded=0;fontSize=12;startSize=8;endSize=8;entryX=0.75;entryY=0;entryDx=0;entryDy=0;exitX=-0.006;exitY=0.231;exitDx=0;exitDy=0;exitPerimeter=0;" edge="1" parent="1" source="m3jKY2579oGw95f_CGnA-95" target="m3jKY2579oGw95f_CGnA-96">
          <mxGeometry width="80" relative="1" as="geometry">
            <mxPoint x="543" y="38" as="sourcePoint" />
            <mxPoint x="537" y="61" as="targetPoint" />
          </mxGeometry>
        </mxCell>
        <mxCell id="m3jKY2579oGw95f_CGnA-111" value="UML deployment diagram Task 1" style="text;html=1;align=center;verticalAlign=middle;whiteSpace=wrap;rounded=0;fontSize=16;" vertex="1" parent="1">
          <mxGeometry x="-389" y="-210" width="276" height="42" as="geometry" />
        </mxCell>
        <mxCell id="m3jKY2579oGw95f_CGnA-112" value="UML deployment diagram Task 2" style="text;html=1;align=center;verticalAlign=middle;whiteSpace=wrap;rounded=0;fontSize=16;" vertex="1" parent="1">
          <mxGeometry x="281" y="-275" width="276" height="42" as="geometry" />
        </mxCell>
      </root>
    </mxGraphModel>
  </diagram>
</mxfile>
